<?xml version="1.0" encoding="utf-8"?>
<svg id="master-artboard" viewBox="0 0 605.6553955078125 707.6207275390625" version="1.1" xmlns="http://www.w3.org/2000/svg" x="0px" y="0px" style="enable-background:new 0 0 1400 980;" width="605.6553955078125px" height="707.6207275390625px"><rect id="ee-background" x="0" y="0" width="605.6553955078125" height="707.6207275390625" style="fill: white; fill-opacity: 0; pointer-events: none;"/><defs><style id="ee-google-fonts">@import url(https://fonts.googleapis.com/css?family=Roboto:100,100italic,300,300italic,400,400italic,500,500italic,700,700italic,900,900italic);</style><radialGradient id="gradient-0" gradientUnits="objectBoundingBox" cx="0.5" cy="0.5" r="0.5">
                <stop offset="0" style="stop-color: #333333"/>
                <stop offset="1" style="stop-color: #000000"/>
              </radialGradient><linearGradient id="gradient-1" gradientUnits="userSpaceOnUse" x1="234" y1="471" x2="234" y2="571" gradientTransform="matrix(0.99998779296875, -0.0049346923828125, 0.004942779541015625, 1.0016476440429687, -2.8194706726074217, 0.21391326904296876)">
                <stop offset="0" style="stop-color: #00010e"/>
                <stop offset="1" style="stop-color: #000000"/>
              </linearGradient><linearGradient id="gradient-2" gradientUnits="userSpaceOnUse" x1="368.9437561035156" y1="183.97479248046875" x2="368.9437561035156" y2="284.02154541015625" gradientTransform="matrix(0.9810879435029766, -0.1935629155314349, 0.13284103013361673, 0.6733143562030935, -17.461915792070187, 131.51575262239936)">
                <stop offset="0" style="stop-color: #2bd8ff"/>
                <stop offset="1" style="stop-color: #00a0c4"/>
              </linearGradient></defs>























































































































<path d="M 260.79998779296875 86.19999694824219" style="fill: rgb(23, 168, 247); fill-opacity: 1; stroke: rgb(0, 0, 0); stroke-opacity: 1; stroke-width: 0; paint-order: fill;" transform="matrix(1, 0, 0, 1, -201.72019958496094, -67.24006652832031)"/><g transform="matrix(6.917202472686768, 0, 0, 6.917202472686768, -1315.806137084961, -3250.0525665283203)"><g id="g-3" transform="matrix(1, 0, 0, 1, 0, 0)">
	<g id="g-4">
		<path class="st0" d="M277,546l-43,25l-43-25v-50l43-25l43,25V546z" style="fill: url('#gradient-1'); fill-opacity: 1; stroke: rgb(10, 222, 255); paint-order: fill;"/>
	</g>
</g></g><g transform="matrix(-4.035678863525391, -1.772737741470337, 1.772737741470337, -4.035678863525391, 1379.731216430664, 1952.9724578857422)"><g id="g-5" transform="matrix(1, 0, 0, 1, 0, 0)">
	<g id="g-6">
		<path class="st0" d="M355.7,185.2c20.2,7.9,30.5,31.1,22.6,51.2c-8,20.1-30.7,29.9-50.8,22c-2.3-0.9-4.4-2.1-6.5-3.4&#10;&#9;&#9;&#9;c11.8,25.2,41.9,36.1,67.1,24.2c11.6-5.4,20.7-15.1,25.4-27c10-25.9-2.9-54.9-28.7-64.9C375.5,183.8,365.4,183,355.7,185.2z" style="fill: url('#gradient-2'); paint-order: fill; stroke: rgb(252, 255, 242); stroke-opacity: 0;"/>
	</g>
</g></g></svg>